<svg width="356" height="306" viewBox="0 0 356 306" fill="none" xmlns="http://www.w3.org/2000/svg">
<g clip-path="url(#clip0_4_526)">
<path d="M243.934 45.5041C238.885 26.1025 220.478 10.976 200.466 9.77996C180.454 8.58393 160.377 21.4129 153.054 40.0757C138.921 22.5684 113.183 15.5203 92.1011 23.3812C71.0195 31.2422 56.1813 53.4221 56.9607 75.9114C40.6079 71.3516 25.4319 86.4006 17.44 101.377C11.9207 111.716 7.67636 123.246 8.70837 134.921C9.74039 146.595 17.177 158.288 28.4873 161.358C26.2702 179.058 33.5403 197.667 47.1693 209.176C60.7983 220.685 80.3562 224.732 97.4364 219.583C106.796 238.307 126.534 251.403 147.422 252.741C168.31 254.08 189.561 243.612 201.23 226.236C216.851 239.566 240.317 242.885 259.019 234.408C277.72 225.932 290.695 206.095 290.967 185.564C310.716 187.789 332.45 180.117 342.769 163.129C350.67 150.124 349.585 131.648 339.779 119.906C336.885 116.44 333.418 114.319 329.629 112.052C332.039 102.982 331.808 87.8679 320.534 82.048C306.905 75.0071 296.578 78.1277 296.578 78.1277C296.578 78.1277 301.788 63.8351 294.218 51.04C289.536 43.1252 280.444 39.0348 271.34 37.8783C261.691 36.6528 251.465 39.2516 243.934 45.5041Z" fill="#6FCACF"/>
<path opacity="0.5" d="M336.186 132.38C331.896 127.288 325.101 124.415 318.459 124.886C322.477 118.152 323.334 109.239 319.334 102.495C314.358 94.1042 303.617 91.1061 293.867 90.8022C292.913 90.7722 291.916 90.7698 291.061 91.1947C290.206 91.6195 289.553 92.609 289.823 93.519C294.14 94.724 298.682 95.0268 302.947 96.4061C307.211 97.7854 311.393 100.578 312.746 104.85C313.7 107.863 313.115 111.122 312.521 114.228C311.517 119.465 310.512 124.704 309.507 129.945C309.56 129.672 314.301 130.413 314.748 130.494C316.522 130.82 318.268 131.284 319.97 131.882C323.314 133.06 326.491 134.765 329.243 137.005C331.964 139.223 334.239 141.957 335.793 145.108C336.391 146.321 337.291 147.041 338.715 146.863C339.871 146.72 340.97 145.939 341.07 144.711C341.221 142.869 340.505 140.66 339.898 138.943C339.231 137.038 338.296 135.238 337.121 133.596C336.828 133.179 336.516 132.774 336.186 132.38Z" fill="white"/>
<path opacity="0.5" d="M280.886 54.414C274.438 50.2155 266.23 49.2568 258.673 50.7017C256.171 51.18 253.67 51.9292 251.581 53.3837C249.493 54.8382 247.847 57.0876 247.592 59.6263C250.038 60.4014 252.613 59.2231 255.053 58.4254C260.052 56.8054 265.428 56.7624 270.451 58.3022C275.475 59.842 279.904 62.89 283.136 67.0327C283.977 68.1121 284.563 69.5209 285.478 70.5107C286.873 72.0192 288.578 69.7355 289.12 68.5465C290.262 66.0386 289.252 63.9154 287.915 61.7061C286.148 58.7796 283.746 56.2875 280.886 54.414Z" fill="white"/>
<path opacity="0.5" d="M213.125 22.0869C205.037 18.8714 195.922 18.5886 187.461 20.6253C179.749 22.4768 172.225 26.46 167.831 33.0622C167.184 34.0334 166.599 35.2752 167.12 36.3185C167.641 37.3618 169.107 37.6431 170.222 37.2453C171.337 36.8475 172.193 35.9736 173.069 35.1805C179.485 29.3686 188.596 27.0445 197.208 27.8715C201.448 28.2789 205.597 29.3994 209.529 31.0195C213.483 32.6512 217.222 34.777 220.724 37.2277C222.008 38.1269 223.651 39.9083 225.363 39.7301C226.624 39.5975 227.606 38.5357 228.119 37.4444C229.697 34.0725 226.55 31.3475 224.309 29.2236C221.395 26.473 218.034 24.2392 214.37 22.6181C213.96 22.4329 213.545 22.2558 213.125 22.0869Z" fill="white"/>
<path opacity="0.5" d="M110.087 29.635C98.6167 31.4853 87.2109 37.0524 80.9768 46.857C79.5174 49.1527 78.3391 52.012 79.3561 54.5369C79.6665 55.3104 80.2652 56.0608 81.0916 56.1689C81.9339 56.2796 82.6956 55.6976 83.3482 55.1553C85.8008 53.1027 88.2468 51.0338 90.8652 49.1979C102.402 41.1094 117.727 37.9623 131.033 42.5945C133.08 43.3075 135.085 44.1999 137.226 44.6069C138.488 44.8466 139.913 45.0131 141.021 44.2154C142.855 42.8946 142.693 40.0977 142.046 38.2034C140.992 35.1184 138.467 33.6807 135.631 32.409C131.923 30.7473 127.938 29.7467 123.908 29.28C119.815 28.8196 115.681 28.8644 111.598 29.4135C111.094 29.4804 110.59 29.5542 110.087 29.635Z" fill="white"/>
<path opacity="0.5" d="M40.019 89.8997C33.5129 94.405 28.7853 101.104 25.4036 108.258C24.3504 110.486 23.3929 112.926 23.7936 115.356C23.853 115.714 23.95 116.084 24.1976 116.347C24.7987 116.987 25.867 116.67 26.6406 116.257C32.1325 113.326 35.7812 107.905 40.4956 103.841C43.4604 101.288 46.848 99.2726 50.5058 97.8847C52.4398 97.151 54.4453 96.6267 56.3874 95.9149C57.64 95.4555 58.8875 94.9715 59.5541 93.737C60.6141 91.7711 59.743 89.2686 58.4888 87.6144C56.8474 85.4506 54.5483 84.577 51.9006 85.016C47.6417 85.7261 43.5616 87.4432 40.019 89.8997Z" fill="white"/>
</g>
<defs>
<clipPath id="clip0_4_526">
<rect width="339.61" height="286.386" fill="white" transform="matrix(-0.998382 -0.0568568 -0.0568568 0.998382 355.344 19.3091)"/>
</clipPath>
</defs>
</svg>
