<svg width="109" height="143" viewBox="0 0 109 143" fill="none" xmlns="http://www.w3.org/2000/svg">
<path d="M66.0123 135.569C66.5555 135.677 67.0988 135.786 67.6421 135.894C69.2448 137.035 68.2126 138.366 67.8594 139.589C67.452 140.947 66.4741 140.403 65.5234 140.241C62.318 139.724 59.0855 139.154 55.853 138.964C48.8447 138.557 42.0266 137.253 35.2084 135.65C32.8995 135.107 31.6771 133.721 30.998 131.467C30.5362 129.973 31.2153 128.316 30.1559 126.958C30.0201 126.007 29.8571 125.056 29.7213 124.078C28.0915 112.153 32.1661 101.939 39.0929 92.5679C44.5257 85.2064 51.2351 79.0403 57.8088 72.7926C59.5473 71.1356 61.2043 69.4244 62.9156 67.7402C63.4317 67.2241 63.8392 66.5177 64.7084 66.4905C70.2499 69.2884 73.4823 73.6618 74.0256 79.9366C74.3516 83.8211 73.6997 87.5427 72.3415 91.1555C71.771 92.6496 71.3636 94.1164 71.9883 95.719C73.2922 99.1417 74.5689 102.591 75.8456 106.041C76.905 111.936 77.9644 117.83 79.0238 123.725C78.7793 123.806 78.5077 123.888 78.2632 123.942C75.9543 124.431 74.5961 126.469 72.5588 127.419C72.0155 126.958 71.934 126.251 71.6081 125.681C70.1955 123.182 69.5436 120.275 67.6421 118.02C66.1209 113.729 64.2467 109.573 61.9921 105.634C59.8733 101.912 55.9616 100.907 52.05 101.288C48.6546 101.614 47.0247 104.466 45.8567 107.454C44.8788 110.007 44.3355 112.696 43.8737 115.358C42.8415 121.307 40.2066 126.115 34.9911 129.375C34.6108 129.619 33.9861 129.755 34.1491 130.353C34.2849 130.896 34.9368 130.842 35.3442 131.005C38.5496 132.2 41.8907 132.771 45.2591 133.205C48.0569 133.558 50.8549 134.183 53.7071 133.64C53.8972 134.183 54.4133 134.264 54.8479 134.319C57.5915 134.645 60.3622 134.916 63.1057 135.188C63.5947 135.242 64.1108 135.297 64.5998 135.324C65.0615 135.677 65.5233 135.677 66.0123 135.569Z" fill="#F87B54"/>
<path d="M99.6953 34.4914C100.483 37.4794 99.8311 40.4403 99.4508 43.374C99.1792 45.4657 99.1249 47.3942 99.804 49.513C101.244 54.1308 100.945 58.6131 97.5765 62.4975C96.1368 59.754 94.8873 59.2106 91.6276 59.944C89.8891 60.3515 88.1506 60.7319 86.4937 59.6453C86.3035 59.5638 86.1405 59.5093 85.9504 59.4278L85.9232 59.4007C84.3477 60.0255 85.2441 58.6946 84.8095 58.4229C82.6364 56.5215 80.2731 56.8473 78.9421 59.2105C78.8334 59.2105 78.7248 59.2106 78.6161 59.2649C76.4702 60.0527 74.3514 60.4059 72.0696 59.7268C68.8643 58.776 67.7234 59.4008 66.3381 62.4975C63.187 59.5367 62.2363 52.963 64.4366 48.3723C65.0613 47.0413 65.1971 45.7917 65.007 44.4335C64.518 41.038 64.4637 37.6424 64.7082 34.2197C65.4145 34.8174 65.0342 35.6052 65.0885 36.3114C65.3058 39.1093 65.496 41.88 66.3381 44.868C67.1258 43.5913 67.7777 42.6405 68.321 41.6354C68.5926 41.1465 69.3532 40.7392 68.9729 40.0329C67.7777 37.887 66.99 35.4694 65.0342 33.7852C65.4688 32.4814 66.3381 33.1332 67.0171 33.4048C69.3261 34.4099 71.4177 35.8225 73.292 37.5338C73.9982 38.1857 74.7045 38.5117 75.6824 38.2673C80.0015 37.0992 84.3206 37.3164 88.6124 38.2943C89.7533 38.566 90.4596 38.2944 91.3016 37.5338C93.013 35.9855 94.9416 34.7089 97.0604 33.7038C97.7938 33.3507 98.6088 32.617 99.3422 33.7579C98.4729 34.5457 98.2284 35.741 97.5493 36.6374C95.4577 39.4082 95.5935 42.0701 97.9296 44.6235C98.0111 44.705 98.1469 44.7322 98.2828 44.8137C98.7717 41.391 99.2335 37.9412 99.6953 34.4914ZM79.9471 53.8592C79.9471 56.4941 80.8979 57.5264 82.6635 56.6843C83.9131 56.0867 83.9945 54.7015 84.2118 53.5334C84.5106 51.9579 83.234 49.7577 82.0659 49.8663C80.1916 50.0565 79.9743 51.5231 79.92 53.0443C79.92 53.3159 79.9471 53.5876 79.9471 53.8592Z" fill="#F9AB97"/>
<path d="M79.0236 123.752C77.9642 117.857 76.9048 111.963 75.8454 106.068C77.2851 106.095 78.1815 105.063 79.1322 104.221C83.3426 100.337 85.8146 95.3113 88.042 90.1502C89.9435 85.7496 91.4103 81.2133 91.03 76.2966C90.7584 72.9011 89.3187 70.1304 85.5973 69.7773C84.0218 69.6415 82.4734 69.6685 80.9251 69.5327C76.3072 69.0709 72.0153 67.7399 68.4297 64.6432L68.484 64.5888C70.5756 64.9691 72.3684 66.1645 74.4601 66.572C77.937 67.2239 80.8164 65.8655 81.5227 63.0948C81.4955 62.7145 81.6856 62.6059 82.0388 62.6059C82.1746 65.1321 83.5871 66.4632 86.1405 66.6805C89.7262 66.9793 92.9315 65.9198 96.001 64.1813C97.9297 70.6192 99.641 77.1386 99.6139 83.9296C99.5867 88.8462 98.3915 93.5999 97.0876 98.3264C96.8703 99.1413 97.1691 100.119 96.3542 100.771C94.4527 105.471 91.7906 109.735 88.9384 113.919C88.5038 114.543 88.1235 115.168 88.1235 115.956C86.1677 116.608 86.0319 118.727 84.891 120.058C82.6907 121.497 81.7671 124.132 79.6755 125.735C79.431 125.029 79.2409 124.404 79.0236 123.752Z" fill="#F87B54"/>
<path d="M79.0512 61.0035C79.0512 61.0579 79.0784 61.1121 79.1055 61.1664C79.0512 61.1664 79.0241 61.1665 78.9697 61.1394C78.9969 61.1122 79.024 61.0579 79.0512 61.0035Z" fill="#D1DCCE"/>
<path d="M79.1045 60.5147V60.4871C79.1045 60.4871 79.1322 60.487 79.1045 60.5147Z" fill="#D1DCCE"/>
<path d="M88.124 115.956C88.124 115.168 88.5043 114.543 88.9389 113.919C91.7912 109.735 94.4261 105.471 96.3547 100.771C96.2732 103.651 96.1917 106.503 96.1102 109.382C96.1102 109.79 96.0831 110.197 96.0831 110.605C96.0831 110.876 96.0831 111.148 96.0831 111.419C96.0831 111.827 96.0831 112.234 96.0831 112.642C96.1102 112.913 96.1373 113.185 96.1645 113.457C96.1373 119.704 96.8164 125.816 98.8809 131.765C99.4242 133.286 100.239 134.21 102.005 134.047C102.955 133.965 103.906 134.21 104.776 134.645C105.563 135.052 106.378 135.568 106.215 136.655C106.052 137.633 105.319 138.176 104.422 138.42C98.6636 139.969 95.1051 138.203 92.7962 132.662C90.4873 127.256 89.1834 121.633 88.124 115.956Z" fill="#F9AB97"/>
<path d="M74.4597 66.5446C77.7465 67.1694 80.49 66.0013 81.3593 63.5566C81.7124 63.8825 82.0384 64.0728 82.31 64.1272C82.8533 65.6483 84.1572 66.4904 86.113 66.6533C89.6986 66.9521 92.9311 65.8926 95.9735 64.1813C96.5167 63.6108 97.0329 63.0678 97.5762 62.4973C96.1365 59.7538 94.8869 59.2104 91.6272 59.9438C89.8888 60.3513 88.1503 60.7317 86.4933 59.6451C86.3031 59.5636 86.1402 59.5091 85.95 59.4276L85.9228 59.4005C85.6783 59.2104 85.4882 59.2919 85.3252 59.4005C85.2437 59.1832 85.1079 58.8574 84.8363 58.4227C82.7718 56.3583 79.9739 56.8743 78.6429 59.2647C76.5241 60.0525 74.3782 60.4056 72.0964 59.7266C68.8911 58.7758 67.7502 59.4278 66.3648 62.4973C66.7179 63.1764 66.718 63.7468 66.066 64.29C65.387 64.8605 64.898 65.5938 64.6807 66.4902C70.2221 69.2881 73.4546 73.6615 73.9979 79.9363C74.3239 83.8208 73.6719 87.5424 72.3137 91.1552C71.7433 92.6493 71.3358 94.116 71.9606 95.7187C73.2645 99.1414 74.5412 102.591 75.8179 106.041C77.2847 106.068 78.154 105.036 79.1047 104.194C83.3151 100.309 85.787 95.2839 88.0144 90.1228C89.9159 85.7222 91.3828 81.1859 91.0025 76.2692C90.7308 72.8737 89.2911 70.1031 85.5697 69.7228C83.9942 69.587 82.4458 69.6141 80.8975 69.4782C76.2796 69.0436 71.9877 67.6854 68.4021 64.5887C68.3478 64.5072 68.2935 64.453 68.212 64.3715C68.2935 64.4258 68.3478 64.4803 68.4293 64.5346C70.5481 64.9692 72.3409 66.1643 74.4597 66.5446Z" fill="#F9AB97"/>
<path d="M84.8656 59.6453V59.6728C84.8656 59.6728 84.8656 59.6728 84.8379 59.6728L84.8656 59.6453Z" fill="#D1DCCE"/>
<path d="M65.0887 33.8122C67.0445 35.4964 67.8323 37.914 69.0275 40.0599C69.4078 40.739 68.6472 41.1466 68.3756 41.6627C67.8323 42.6678 67.1803 43.6183 66.3926 44.895C65.5505 41.907 65.3875 39.1363 65.143 36.3384C65.0887 35.6322 65.469 34.8174 64.7628 34.247C64.7356 33.9754 64.8171 33.8122 65.0887 33.8122Z" fill="#F87B54"/>
<path d="M99.6952 34.4913C99.2334 37.9411 98.7717 41.391 98.3099 44.868C98.1469 44.7865 98.0382 44.7593 97.9568 44.6778C95.6207 42.1244 95.4849 39.4625 97.5765 36.6918C98.2556 35.7953 98.5 34.6 99.3693 33.8122C99.6952 33.948 99.7767 34.1925 99.6952 34.4913Z" fill="#F87B54"/>
<path d="M96.0283 112.642C96.0283 112.235 96.0283 111.827 96.0283 111.42C96.4629 111.827 96.4358 112.235 96.0283 112.642Z" fill="#DDE4D1"/>
<path d="M96.0566 110.605C96.0566 110.197 96.0838 109.79 96.0838 109.382C96.4641 109.79 96.4641 110.197 96.0566 110.605Z" fill="#DDE4D1"/>
<path d="M107.899 98.7068C108.008 98.8698 108.09 99.0328 108.198 99.1686C108.09 99.0328 107.981 98.8698 107.899 98.7068Z" fill="#F2935A"/>
<path d="M30.1562 126.957C31.2156 128.316 30.5366 129.973 30.9983 131.467C31.6774 133.721 32.8998 135.107 35.2088 135.65C41.9997 137.253 48.845 138.584 55.8533 138.964C59.0858 139.154 62.3184 139.724 65.5237 140.24C66.4744 140.403 67.4523 140.92 67.8597 139.589C68.24 138.366 69.2723 137.035 67.6424 135.894C70.7663 136.166 73.863 136.628 76.688 138.067C77.6931 138.556 78.6981 139.154 78.4537 140.485C78.2092 141.762 77.0955 142.115 75.9818 142.224C73.0481 142.55 70.1415 142.224 67.2078 142.033C65.904 141.599 64.5458 141.49 63.1876 141.327C51.8059 140.132 40.2884 139.86 29.45 135.514C25.9459 132.58 26.2175 129.348 30.1562 126.957Z" fill="#F9AB97"/>
<path d="M66.0122 135.568C65.5233 135.677 65.0344 135.677 64.6269 135.324C64.7356 135.27 64.8986 135.27 64.98 135.188C65.143 135.079 65.2245 134.862 64.9257 134.862C64.3009 134.862 63.6218 134.59 63.1057 135.188C60.3621 134.889 57.5915 134.618 54.8479 134.319C54.4133 134.264 53.8972 134.183 53.707 133.64C59.4658 132.417 63.812 129.484 65.6591 123.589C66.2568 121.715 66.963 119.895 67.6149 118.02C69.5164 120.275 70.1683 123.182 71.5808 125.681C71.9068 126.251 71.9883 126.985 72.5316 127.419C73.2378 129.049 73.917 130.679 74.6232 132.309C72.1242 134.373 69.1361 135.107 66.0122 135.568Z" fill="#F87B54"/>
<path d="M74.6239 132.336C73.9176 130.706 73.2385 129.076 72.5322 127.446C74.5695 126.523 75.9277 124.458 78.2366 123.969C78.5083 123.915 78.7528 123.834 78.9972 123.752C79.1874 124.377 79.4047 125.029 79.622 125.708C81.7137 124.105 82.6372 121.47 84.8375 120.031C84.5115 123.942 84.1312 127.854 83.8868 131.766C83.8324 132.58 83.3435 133.776 84.8104 134.047C83.425 134.427 82.7459 135.677 82.9903 136.791C83.3706 138.557 82.4199 138.529 81.3062 138.638C78.7256 138.312 77.0958 136.764 75.9006 134.59C75.5203 133.83 75.0585 133.069 74.6239 132.336Z" fill="#F9AB97"/>
<path d="M81.332 138.638C82.4458 138.556 83.3965 138.556 83.0162 136.791C82.7717 135.677 83.4508 134.455 84.8361 134.047C85.8955 134.21 87.0093 134.264 88.0415 134.536C89.0737 134.808 89.8887 135.46 89.8887 136.682C89.8887 137.932 89.0194 138.584 87.96 138.692C85.7597 138.91 83.5323 139.208 81.332 138.638Z" fill="#F87B54"/>
<path d="M67.6429 118.02C66.9909 119.867 66.2847 121.715 65.6871 123.589C63.8399 129.483 59.4937 132.417 53.735 133.64C50.8828 134.183 48.0849 133.558 45.287 133.205C41.9187 132.77 38.5775 132.2 35.3722 131.005C34.9648 130.842 34.3128 130.923 34.177 130.353C34.014 129.728 34.6388 129.592 35.0191 129.375C40.2345 126.142 42.8694 121.307 43.9016 115.358C44.3634 112.696 44.9067 110.007 45.8846 107.454C47.0527 104.466 48.6825 101.613 52.078 101.287C55.9896 100.934 59.874 101.912 62.02 105.634C64.2474 109.545 66.1217 113.728 67.6429 118.02Z" fill="#F9AB97"/>
<path d="M63.1328 135.188C63.6489 134.59 64.328 134.862 64.9528 134.862C65.2516 134.862 65.1701 135.079 65.0071 135.188C64.8984 135.269 64.7626 135.269 64.654 135.324C64.1378 135.269 63.6489 135.215 63.1328 135.188Z" fill="#F87B54"/>
<path d="M79.9473 53.8592C79.9473 53.5876 79.9473 53.316 79.9473 53.0443C79.9744 51.5231 80.2189 50.0565 82.0933 49.8664C83.2613 49.7577 84.538 51.958 84.2392 53.5335C84.0219 54.7015 83.9404 56.114 82.6908 56.6844C80.8709 57.5536 79.9473 56.5213 79.9473 53.8592Z" fill="#F9AB97"/>
<path d="M79.1055 60.8947V61.1934C79.0512 61.1934 79.0241 61.1935 78.9697 61.1664C78.9969 61.1121 79.024 61.0577 79.0512 61.0306C79.0783 60.9762 79.1055 60.9219 79.1055 60.8947Z" fill="#D1DCCE"/>
<path d="M86.5218 59.6722C86.3316 59.5907 86.1687 59.5364 85.9785 59.455C86.1415 59.5093 86.3316 59.5907 86.5218 59.6722Z" fill="#343B59"/>
<path d="M68.4296 64.6162C68.3753 64.5347 68.3209 64.4804 68.2666 64.3989C68.3481 64.4533 68.4024 64.5075 68.4839 64.5618C68.4568 64.589 68.4296 64.6162 68.4296 64.6162Z" fill="#A3A7B4"/>
<path d="M4.66632 16.5775C3.77139 18.1024 3.15909 19.9479 3.70389 21.6303C4.0117 22.5744 4.66151 23.376 5.40952 24.0293C10.4698 28.4588 19.738 25.9745 21.883 19.5623C23.4202 14.9677 20.1386 9.34319 14.9826 9.69973C10.8023 9.98866 6.73439 13.0556 4.66632 16.5775Z" fill="#6FCACF"/>
<path d="M24.588 29.6171C24.7919 32.4378 27.8134 34.4624 30.6369 34.3068C33.2167 34.1612 35.4938 32.6207 37.1831 30.7536C38.5911 29.1968 40.1291 26.8825 39.1902 24.7072C37.386 20.5407 30.9019 22.199 28.0878 24.0246C26.1951 25.2516 24.4143 27.2089 24.588 29.6171Z" fill="#6FCACF"/>
<path d="M42.3417 35.1249C41.5461 35.7898 40.8134 36.6885 40.8367 37.7251C40.8556 38.6549 41.4917 39.4756 42.2521 40.0099C42.5965 40.2648 42.9893 40.4468 43.4064 40.5448C44.1992 40.7092 45.0132 40.4468 45.7309 40.0867C46.8476 39.525 47.8271 38.7245 48.5999 37.742C49.1025 37.1019 49.4159 36.3684 49.0632 35.5757C48.8049 35.0086 48.4414 34.4956 47.992 34.0639C47.1597 33.2832 45.8816 33.4535 44.8706 33.7405C43.9372 34.0037 43.0801 34.5073 42.3417 35.1249Z" fill="#6FCACF"/>
</svg>
