<svg width="137" height="155" viewBox="0 0 137 155" fill="none" xmlns="http://www.w3.org/2000/svg">
<path d="M65.7503 18.2502C62.8485 18.8304 60.1037 20.0435 57.728 21.7742C57.0812 21.3055 56.4154 20.8703 55.7133 20.4733C46.0173 14.9916 33.677 18.4274 28.2016 28.1122C26.1979 31.6562 25.3242 35.7509 25.6683 39.7986C22.0115 41.5844 18.9645 44.4504 16.9609 47.9944C11.4791 57.6904 14.915 70.0307 24.5998 75.5061C25.1681 75.8275 25.7602 76.1328 26.3601 76.3984C25.912 79.4542 26.1821 82.5924 27.1486 85.5654C28.7205 90.3809 32.007 94.4009 36.4092 96.8897C40.6219 99.2715 45.5752 100.057 50.3189 99.1063C54.42 98.2776 58.1424 96.22 60.9838 93.2232L144.402 140.385L146.252 141.431L147.298 139.581L173.359 93.486L174.404 91.636L172.554 90.5901L89.1359 43.4284C90.2388 39.4486 90.089 35.1871 88.6783 31.257C87.0535 26.6911 83.8204 22.863 79.6077 20.4813C75.4124 18.0947 70.4877 17.3106 65.7503 18.2502Z" fill="#09384E"/>
<path d="M77.2012 24.738C84.5456 28.8902 87.1419 38.2411 82.9897 45.5855L118.709 65.7796C122.509 67.9282 123.846 72.7432 121.697 76.5436C119.549 80.3439 114.734 81.6809 110.933 79.5323C114.734 81.6809 116.071 86.4958 113.922 90.2962C111.774 94.0966 106.959 95.4335 103.158 93.2849C106.959 95.4335 108.296 100.248 106.147 104.049C103.998 107.849 99.1833 109.186 95.383 107.038L59.664 86.8434C55.5118 94.1878 46.1609 96.7841 38.8165 92.6319C31.8956 88.7191 29.1998 80.1944 32.3829 73.0815C30.5444 72.8216 28.7234 72.2186 27.0182 71.2545C19.6738 67.1023 17.0775 57.7515 21.2297 50.4071C23.4602 46.4618 27.1977 43.8833 31.3192 42.9926C29.9575 39.0019 30.2399 34.47 32.4704 30.5248C36.6227 23.1804 45.9735 20.5841 53.3179 24.7363C55.0676 25.7255 56.544 27.0162 57.7354 28.4986C62.3173 22.7355 70.5812 20.9953 77.2012 24.738Z" fill="white"/>
<path d="M76.5543 41.9333C78.7014 38.1356 77.3633 33.3164 73.5656 31.1694C69.7679 29.0223 64.9487 30.3604 62.8017 34.1581C60.6546 37.9557 61.9927 42.7749 65.7904 44.922C69.5881 47.0691 74.4073 45.731 76.5543 41.9333Z" fill="#F9AB97"/>
<path d="M52.6403 83.6516C54.7874 79.8539 53.4493 75.0347 49.6516 72.8876C45.8539 70.7405 41.0347 72.0786 38.8876 75.8763C36.7405 79.674 38.0787 84.4932 41.8763 86.6402C45.674 88.7873 50.4932 87.4492 52.6403 83.6516Z" fill="#F9AB97"/>
<path d="M41.4059 61.8298C43.553 58.0322 42.2149 53.213 38.4172 51.0659C34.6195 48.9188 29.8003 50.2569 27.6532 54.0546C25.5062 57.8523 26.8443 62.6715 30.642 64.8185C34.4396 66.9656 39.2588 65.6275 41.4059 61.8298Z" fill="#F9AB97"/>
<path d="M52.653 41.9367C54.8 38.139 53.4619 33.3198 49.6643 31.1727C45.8666 29.0257 41.0474 30.3637 38.9003 34.1614C36.7532 37.9591 38.0913 42.7783 41.889 44.9253C45.6867 47.0724 50.5059 45.7343 52.653 41.9367Z" fill="#F9AB97"/>
<path d="M61.2595 50.5671C61.226 50.5482 61.2038 50.5356 61.1703 50.5167C57.0594 48.1631 51.7589 49.5785 49.3718 53.6706C46.9344 57.8518 48.3866 63.2173 52.5882 65.5927C52.6439 65.6242 52.6996 65.6557 52.7442 65.6809C54.6131 66.6934 55.805 68.6173 55.9259 70.7447C56.1127 73.7181 57.8152 76.5337 60.7279 77.9893C64.7419 79.9939 69.6708 78.5596 72.005 74.7171C72.8056 73.4049 73.2056 71.9692 73.2547 70.5556C73.3329 68.5703 74.3662 66.7426 76.027 65.6519C77.2192 64.8699 78.2432 63.787 78.9485 62.4356C81.0423 58.4719 79.7253 53.4917 75.9381 51.0858C73.2004 49.3468 69.8989 49.3334 67.2548 50.7064C65.376 51.6884 63.1017 51.6528 61.2595 50.5671Z" fill="#F9AB97"/>
<path d="M31.6215 69.6955C29.4542 71.4999 28.4529 73.7134 27.9962 75.2495C27.8585 75.7011 27.9148 76.1741 28.1342 76.5923C28.3537 77.0105 28.7282 77.3105 29.1687 77.4419C29.6203 77.5795 30.0932 77.5234 30.5115 77.3039C30.9297 77.0844 31.2297 76.7099 31.361 76.2694C31.6848 75.2024 32.3828 73.6557 33.8745 72.3959C34.6291 71.7636 35.5083 71.2753 36.4644 70.9628C36.8782 70.8291 37.231 70.5432 37.4452 70.1643C37.6846 69.7408 37.7395 69.2276 37.5801 68.7552C37.4367 68.3064 37.1222 67.9521 36.7036 67.7301C36.2786 67.5193 35.8163 67.4785 35.3613 67.6331C33.9913 68.0792 32.7177 68.7711 31.6215 69.6955Z" fill="#09384E"/>
<path d="M27.0929 37.4124C26.8263 37.8058 26.7396 38.2715 26.8195 38.7285C27.1057 40.1992 27.5489 41.6264 28.1269 42.9973C28.496 43.8531 28.9176 44.6944 29.3928 45.4926C29.889 46.3319 30.97 46.6048 31.7919 46.1136C32.0579 45.9551 32.2698 45.7367 32.421 45.4692C32.7298 44.9231 32.7298 44.2466 32.4018 43.7082C32.0001 43.0399 31.646 42.3396 31.3441 41.6248C30.8577 40.4821 30.4887 39.2881 30.2591 38.0553C30.0785 37.1001 29.1467 36.4851 28.2027 36.672C27.7506 36.7694 27.3532 37.03 27.0929 37.4124Z" fill="#09384E"/>
<path d="M57.8158 23.677C57.3492 23.722 56.931 23.9415 56.631 24.3161C55.873 25.2406 54.8765 26.795 54.521 28.9325C54.17 30.9842 54.5464 32.7118 54.915 33.8026C55.0647 34.2402 55.3903 34.6008 55.8041 34.8053C56.2291 35.0162 56.7039 35.0346 57.1415 34.8849C57.5442 34.7449 57.8796 34.4639 58.0939 34.085C58.3396 33.6503 58.3895 33.1197 58.2301 32.6472C57.9903 31.9528 57.7438 30.828 57.9775 29.5042C58.2142 28.1231 58.8496 27.1293 59.339 26.5236C59.6327 26.1602 59.7704 25.7086 59.7254 25.242C59.6804 24.7753 59.461 24.3571 59.0865 24.0571C58.7453 23.776 58.2825 23.632 57.8158 23.677Z" fill="#09384E"/>
</svg>
